# xmcd
#
# Track frame offsets: 
#        150
#        14585
#        26221
#        38948
#        52601
#        63878
#        75178
#        89941
#        101660
#        115598
#        130082
#        141582
#        153376
#        166129
#        178324
#        192698
#
# Disc length: 2729 seconds
#
# Revision: 1
# Processed by: cddbd v1.5.2PL0 Copyright (c) Steve Scherf et al.
# Submitted via: ExactAudioCopy v1.0b3
#
DISCID=da0aa710
DTITLE=Various Artist - First Ladies Of Country
DYEAR=2004
DGENRE=Country
TTITLE0=Riley, Jeannie C. - Harper Valley P.T.A.
TTITLE1=Cline, Patsy - A Poor Man's Roses (Or A Rich Man's Gold)
TTITLE2=Anderson, Lynn - Rose Garden
TTITLE3=Page, Patti - Tennessee Waltz
TTITLE4=Spears, Billie Jo - Stand By Your Man
TTITLE5=Parton, Dolly - Making Believe
TTITLE6=Murray, Anne - Both Sides Now
TTITLE7=Fairchild, Barbara - You Can't Put The City In A Country Girl
TTITLE8=Remington, Rita - Angel Of The Morning
TTITLE9=Lynn, Loretta - Coal Miner's Daughter
TTITLE10=Lee, Brenda - Silver Threads And Golden Needles
TTITLE11=Osmond, Marie - I'll Take You Back
TTITLE12=Coolidge, Rita - Words
TTITLE13=Tucker, Tanya - Love Knows We Tried
TTITLE14=Carter, Maybellene with The Carter Family - Wildwood Flower
TTITLE15=Turner, Tina - I'm Moving On
EXTD=
EXTT0=
EXTT1=
EXTT2=
EXTT3=
EXTT4=
EXTT5=
EXTT6=
EXTT7=
EXTT8=
EXTT9=
EXTT10=
EXTT11=
EXTT12=
EXTT13=
EXTT14=
EXTT15=
PLAYORDER=
